<svg width="890" height="400" viewBox="0 0 890 400" xmlns="http://www.w3.org/2000/svg"><title>Logo@3x</title><g fill="none" fill-rule="evenodd"><rect fill="#242932" width="890" height="400" rx="10"/><path d="M505.134 106.718l-29.32-12.554h-61.628l-29.32 12.554-23.78 27.116 83.918 112.002 83.91-112.002-23.78-27.116zm13.69 28.25l-22.15 17.078-17.63-25.604 24.804-11.79 14.977 20.316zm-32.868 22.145h-81.912l16.784-29.71h48.344l16.784 29.71zm-16.852-57.397l22.664 9.736-22.756 10.69h-48.024l-22.756-10.69 22.412-9.742 48.46.006zm-83.23 14.936l24.805 11.79-17.63 25.604-22.152-17.078 14.977-20.316zm-5.964 37.11l14.193 11.1 33.92 55.114-48.113-66.215zm26.105 14.404h77.97l-38.98 69.257-38.99-69.257zm55.686 51.81l33.92-55.115 14.193-11.1-48.112 66.216z" fill="#FFC800"/><g transform="translate(-1 9)"><path d="M1.133 21.756h1025.864" stroke="#FFF" stroke-width="2" stroke-linecap="square"/><ellipse fill="#FFC700" cx="16.244" cy="5.981" rx="5.667" ry="5.668"/><ellipse fill="#FFC700" cx="35.133" cy="5.981" rx="5.667" ry="5.668"/><ellipse fill="#FFC700" cx="54.022" cy="5.981" rx="5.667" ry="5.668"/></g><text transform="translate(166 272.023)" font-size="48" font-family="Avenir-Light, Avenir" fill="#FFF" font-weight="300"><tspan x=".789" y="48.258">&lt;/ Sketch Markup Listify &gt;</tspan></text></g></svg>